<mxfile host="app.diagrams.net" modified="2023-12-06T14:38:47.402Z" agent="Mozilla/5.0 (Windows NT 10.0; Win64; x64) AppleWebKit/537.36 (KHTML, like Gecko) Chrome/119.0.0.0 Safari/537.36" etag="3GtkA_DSoSxehu19XNkJ" version="22.1.5" type="device">
  <diagram name="Page-1" id="mblZwV-JTzLVA2g6jxey">
    <mxGraphModel dx="637" dy="369" grid="1" gridSize="10" guides="1" tooltips="1" connect="1" arrows="1" fold="1" page="1" pageScale="1" pageWidth="850" pageHeight="1100" math="0" shadow="0">
      <root>
        <mxCell id="0" />
        <mxCell id="1" parent="0" />
        <mxCell id="SKo8-4BT1ToBEDV4E3_7-129" value="" style="rounded=0;whiteSpace=wrap;html=1;fillColor=none;align=left;fontColor=#000000;strokeColor=#CC0000;" vertex="1" parent="1">
          <mxGeometry x="472" y="650" width="165" height="100" as="geometry" />
        </mxCell>
        <mxCell id="SKo8-4BT1ToBEDV4E3_7-1" value="1" style="rounded=0;whiteSpace=wrap;html=1;fillColor=#d5e8d4;strokeColor=#82b366;fontColor=#666666;" vertex="1" parent="1">
          <mxGeometry x="470" y="400" width="20" height="20" as="geometry" />
        </mxCell>
        <mxCell id="SKo8-4BT1ToBEDV4E3_7-3" value="Mo" style="text;html=1;strokeColor=none;fillColor=none;align=center;verticalAlign=middle;whiteSpace=wrap;rounded=0;fontColor=#666666;" vertex="1" parent="1">
          <mxGeometry x="470" y="380" width="20" height="20" as="geometry" />
        </mxCell>
        <mxCell id="SKo8-4BT1ToBEDV4E3_7-4" value="2" style="rounded=0;whiteSpace=wrap;html=1;fillColor=#d5e8d4;strokeColor=#82b366;fontColor=#666666;" vertex="1" parent="1">
          <mxGeometry x="490" y="400" width="20" height="20" as="geometry" />
        </mxCell>
        <mxCell id="SKo8-4BT1ToBEDV4E3_7-5" value="Tu" style="text;html=1;strokeColor=none;fillColor=none;align=center;verticalAlign=middle;whiteSpace=wrap;rounded=0;fontColor=#666666;" vertex="1" parent="1">
          <mxGeometry x="490" y="380" width="20" height="20" as="geometry" />
        </mxCell>
        <mxCell id="SKo8-4BT1ToBEDV4E3_7-6" value="3" style="rounded=0;whiteSpace=wrap;html=1;fillColor=#d5e8d4;strokeColor=#82b366;fontColor=#666666;" vertex="1" parent="1">
          <mxGeometry x="510" y="400" width="20" height="20" as="geometry" />
        </mxCell>
        <mxCell id="SKo8-4BT1ToBEDV4E3_7-7" value="We" style="text;html=1;strokeColor=none;fillColor=none;align=center;verticalAlign=middle;whiteSpace=wrap;rounded=0;fontColor=#666666;" vertex="1" parent="1">
          <mxGeometry x="510" y="380" width="20" height="20" as="geometry" />
        </mxCell>
        <mxCell id="SKo8-4BT1ToBEDV4E3_7-8" value="4" style="rounded=0;whiteSpace=wrap;html=1;fillColor=#d5e8d4;strokeColor=#82b366;fontColor=#666666;" vertex="1" parent="1">
          <mxGeometry x="530" y="400" width="20" height="20" as="geometry" />
        </mxCell>
        <mxCell id="SKo8-4BT1ToBEDV4E3_7-9" value="Th" style="text;html=1;strokeColor=none;fillColor=none;align=center;verticalAlign=middle;whiteSpace=wrap;rounded=0;fontColor=#666666;" vertex="1" parent="1">
          <mxGeometry x="530" y="380" width="20" height="20" as="geometry" />
        </mxCell>
        <mxCell id="SKo8-4BT1ToBEDV4E3_7-10" value="5" style="rounded=0;whiteSpace=wrap;html=1;fillColor=#d5e8d4;strokeColor=#82b366;fontColor=#666666;" vertex="1" parent="1">
          <mxGeometry x="550" y="400" width="20" height="20" as="geometry" />
        </mxCell>
        <mxCell id="SKo8-4BT1ToBEDV4E3_7-11" value="Fr" style="text;html=1;strokeColor=none;fillColor=none;align=center;verticalAlign=middle;whiteSpace=wrap;rounded=0;fontColor=#666666;" vertex="1" parent="1">
          <mxGeometry x="550" y="380" width="20" height="20" as="geometry" />
        </mxCell>
        <mxCell id="SKo8-4BT1ToBEDV4E3_7-12" value="6" style="rounded=0;whiteSpace=wrap;html=1;fillColor=#d5e8d4;strokeColor=#82b366;fontColor=#666666;" vertex="1" parent="1">
          <mxGeometry x="570" y="400" width="20" height="20" as="geometry" />
        </mxCell>
        <mxCell id="SKo8-4BT1ToBEDV4E3_7-13" value="Sa" style="text;html=1;strokeColor=none;fillColor=none;align=center;verticalAlign=middle;whiteSpace=wrap;rounded=0;fontColor=#666666;" vertex="1" parent="1">
          <mxGeometry x="570" y="380" width="20" height="20" as="geometry" />
        </mxCell>
        <mxCell id="SKo8-4BT1ToBEDV4E3_7-14" value="7" style="rounded=0;whiteSpace=wrap;html=1;fillColor=#d5e8d4;strokeColor=#82b366;fontColor=#666666;" vertex="1" parent="1">
          <mxGeometry x="590" y="400" width="20" height="20" as="geometry" />
        </mxCell>
        <mxCell id="SKo8-4BT1ToBEDV4E3_7-15" value="Su" style="text;html=1;strokeColor=none;fillColor=none;align=center;verticalAlign=middle;whiteSpace=wrap;rounded=0;fontColor=#666666;" vertex="1" parent="1">
          <mxGeometry x="590" y="380" width="20" height="20" as="geometry" />
        </mxCell>
        <mxCell id="SKo8-4BT1ToBEDV4E3_7-16" value="n = 26" style="text;html=1;strokeColor=none;fillColor=none;align=center;verticalAlign=middle;whiteSpace=wrap;rounded=0;fontColor=#000000;" vertex="1" parent="1">
          <mxGeometry x="360" y="430" width="40" height="20" as="geometry" />
        </mxCell>
        <mxCell id="SKo8-4BT1ToBEDV4E3_7-17" value="2" style="rounded=0;whiteSpace=wrap;html=1;fillColor=#d5e8d4;strokeColor=#82b366;fontColor=#666666;" vertex="1" parent="1">
          <mxGeometry x="470" y="420" width="20" height="20" as="geometry" />
        </mxCell>
        <mxCell id="SKo8-4BT1ToBEDV4E3_7-18" value="3" style="rounded=0;whiteSpace=wrap;html=1;fillColor=#d5e8d4;strokeColor=#82b366;fontColor=#666666;" vertex="1" parent="1">
          <mxGeometry x="490" y="420" width="20" height="20" as="geometry" />
        </mxCell>
        <mxCell id="SKo8-4BT1ToBEDV4E3_7-19" value="4" style="rounded=0;whiteSpace=wrap;html=1;fillColor=#d5e8d4;strokeColor=#82b366;fontColor=#666666;" vertex="1" parent="1">
          <mxGeometry x="510" y="420" width="20" height="20" as="geometry" />
        </mxCell>
        <mxCell id="SKo8-4BT1ToBEDV4E3_7-20" value="..." style="rounded=0;whiteSpace=wrap;html=1;fillColor=#d5e8d4;strokeColor=#82b366;fontColor=#666666;" vertex="1" parent="1">
          <mxGeometry x="530" y="420" width="20" height="20" as="geometry" />
        </mxCell>
        <mxCell id="SKo8-4BT1ToBEDV4E3_7-21" value="..." style="rounded=0;whiteSpace=wrap;html=1;fillColor=#d5e8d4;strokeColor=#82b366;fontColor=#666666;" vertex="1" parent="1">
          <mxGeometry x="550" y="420" width="20" height="20" as="geometry" />
        </mxCell>
        <mxCell id="SKo8-4BT1ToBEDV4E3_7-22" value="..." style="rounded=0;whiteSpace=wrap;html=1;fillColor=#d5e8d4;strokeColor=#82b366;fontColor=#666666;" vertex="1" parent="1">
          <mxGeometry x="570" y="420" width="20" height="20" as="geometry" />
        </mxCell>
        <mxCell id="SKo8-4BT1ToBEDV4E3_7-23" value="..." style="rounded=0;whiteSpace=wrap;html=1;fillColor=#d5e8d4;strokeColor=#82b366;fontColor=#666666;" vertex="1" parent="1">
          <mxGeometry x="590" y="420" width="20" height="20" as="geometry" />
        </mxCell>
        <mxCell id="SKo8-4BT1ToBEDV4E3_7-24" value="3" style="rounded=0;whiteSpace=wrap;html=1;fillColor=#d5e8d4;strokeColor=#82b366;fontColor=#666666;" vertex="1" parent="1">
          <mxGeometry x="470" y="440" width="20" height="20" as="geometry" />
        </mxCell>
        <mxCell id="SKo8-4BT1ToBEDV4E3_7-25" value="..." style="rounded=0;whiteSpace=wrap;html=1;fillColor=#d5e8d4;strokeColor=#82b366;fontColor=#666666;" vertex="1" parent="1">
          <mxGeometry x="490" y="440" width="20" height="20" as="geometry" />
        </mxCell>
        <mxCell id="SKo8-4BT1ToBEDV4E3_7-26" value="" style="rounded=0;whiteSpace=wrap;html=1;fillColor=#d5e8d4;strokeColor=#82b366;fontColor=#666666;" vertex="1" parent="1">
          <mxGeometry x="510" y="440" width="20" height="20" as="geometry" />
        </mxCell>
        <mxCell id="SKo8-4BT1ToBEDV4E3_7-27" value="" style="rounded=0;whiteSpace=wrap;html=1;fillColor=#d5e8d4;strokeColor=#82b366;fontColor=#666666;" vertex="1" parent="1">
          <mxGeometry x="530" y="440" width="20" height="20" as="geometry" />
        </mxCell>
        <mxCell id="SKo8-4BT1ToBEDV4E3_7-28" value="" style="rounded=0;whiteSpace=wrap;html=1;fillColor=#d5e8d4;strokeColor=#82b366;fontColor=#666666;" vertex="1" parent="1">
          <mxGeometry x="550" y="440" width="20" height="20" as="geometry" />
        </mxCell>
        <mxCell id="SKo8-4BT1ToBEDV4E3_7-29" value="" style="rounded=0;whiteSpace=wrap;html=1;fillColor=#d5e8d4;strokeColor=#82b366;fontColor=#666666;" vertex="1" parent="1">
          <mxGeometry x="570" y="440" width="20" height="20" as="geometry" />
        </mxCell>
        <mxCell id="SKo8-4BT1ToBEDV4E3_7-30" value="" style="rounded=0;whiteSpace=wrap;html=1;fillColor=#d5e8d4;strokeColor=#82b366;fontColor=#666666;" vertex="1" parent="1">
          <mxGeometry x="590" y="440" width="20" height="20" as="geometry" />
        </mxCell>
        <mxCell id="SKo8-4BT1ToBEDV4E3_7-31" value="7 Days" style="text;html=1;strokeColor=none;fillColor=none;align=center;verticalAlign=middle;whiteSpace=wrap;rounded=0;fontColor=#000000;" vertex="1" parent="1">
          <mxGeometry x="420" y="400" width="50" height="20" as="geometry" />
        </mxCell>
        <mxCell id="SKo8-4BT1ToBEDV4E3_7-32" value="7 Days" style="text;html=1;strokeColor=none;fillColor=none;align=center;verticalAlign=middle;whiteSpace=wrap;rounded=0;fontColor=#000000;" vertex="1" parent="1">
          <mxGeometry x="420" y="420" width="50" height="20" as="geometry" />
        </mxCell>
        <mxCell id="SKo8-4BT1ToBEDV4E3_7-33" value="7 Days" style="text;html=1;strokeColor=none;fillColor=none;align=center;verticalAlign=middle;whiteSpace=wrap;rounded=0;fontColor=#000000;" vertex="1" parent="1">
          <mxGeometry x="420" y="440" width="50" height="20" as="geometry" />
        </mxCell>
        <mxCell id="SKo8-4BT1ToBEDV4E3_7-34" value="5 Days" style="text;html=1;strokeColor=none;fillColor=none;align=center;verticalAlign=middle;whiteSpace=wrap;rounded=0;fontColor=#000000;" vertex="1" parent="1">
          <mxGeometry x="420" y="460" width="50" height="20" as="geometry" />
        </mxCell>
        <mxCell id="SKo8-4BT1ToBEDV4E3_7-35" value="4" style="rounded=0;whiteSpace=wrap;html=1;fillColor=#d5e8d4;strokeColor=#82b366;fontColor=#666666;" vertex="1" parent="1">
          <mxGeometry x="470" y="460" width="20" height="20" as="geometry" />
        </mxCell>
        <mxCell id="SKo8-4BT1ToBEDV4E3_7-36" value="..." style="rounded=0;whiteSpace=wrap;html=1;fillColor=#d5e8d4;strokeColor=#82b366;fontColor=#666666;" vertex="1" parent="1">
          <mxGeometry x="490" y="460" width="20" height="20" as="geometry" />
        </mxCell>
        <mxCell id="SKo8-4BT1ToBEDV4E3_7-37" value="..." style="rounded=0;whiteSpace=wrap;html=1;fillColor=#d5e8d4;strokeColor=#82b366;fontColor=#666666;" vertex="1" parent="1">
          <mxGeometry x="510" y="460" width="20" height="20" as="geometry" />
        </mxCell>
        <mxCell id="SKo8-4BT1ToBEDV4E3_7-38" value="..." style="rounded=0;whiteSpace=wrap;html=1;fillColor=#d5e8d4;strokeColor=#82b366;fontColor=#666666;" vertex="1" parent="1">
          <mxGeometry x="530" y="460" width="20" height="20" as="geometry" />
        </mxCell>
        <mxCell id="SKo8-4BT1ToBEDV4E3_7-39" value="8" style="rounded=0;whiteSpace=wrap;html=1;fillColor=#d5e8d4;strokeColor=#82b366;fontColor=#666666;" vertex="1" parent="1">
          <mxGeometry x="550" y="460" width="20" height="20" as="geometry" />
        </mxCell>
        <mxCell id="SKo8-4BT1ToBEDV4E3_7-40" value="" style="labelPosition=right;align=left;strokeWidth=1;shape=mxgraph.mockup.markup.curlyBrace;html=1;shadow=0;dashed=0;strokeColor=#000000;direction=north;fontColor=#000000;fillColor=#f5f5f5;" vertex="1" parent="1">
          <mxGeometry x="400" y="400" width="20" height="80" as="geometry" />
        </mxCell>
        <mxCell id="SKo8-4BT1ToBEDV4E3_7-45" value="1" style="rounded=0;whiteSpace=wrap;html=1;fillColor=#d5e8d4;strokeColor=#82b366;fontColor=#666666;" vertex="1" parent="1">
          <mxGeometry x="360" y="520" width="20" height="20" as="geometry" />
        </mxCell>
        <mxCell id="SKo8-4BT1ToBEDV4E3_7-46" value="Mo" style="text;html=1;strokeColor=none;fillColor=none;align=center;verticalAlign=middle;whiteSpace=wrap;rounded=0;fontColor=#666666;" vertex="1" parent="1">
          <mxGeometry x="360" y="500" width="20" height="20" as="geometry" />
        </mxCell>
        <mxCell id="SKo8-4BT1ToBEDV4E3_7-47" value="2" style="rounded=0;whiteSpace=wrap;html=1;fillColor=#d5e8d4;strokeColor=#82b366;fontColor=#666666;" vertex="1" parent="1">
          <mxGeometry x="380" y="520" width="20" height="20" as="geometry" />
        </mxCell>
        <mxCell id="SKo8-4BT1ToBEDV4E3_7-48" value="Tu" style="text;html=1;strokeColor=none;fillColor=none;align=center;verticalAlign=middle;whiteSpace=wrap;rounded=0;fontColor=#666666;" vertex="1" parent="1">
          <mxGeometry x="380" y="500" width="20" height="20" as="geometry" />
        </mxCell>
        <mxCell id="SKo8-4BT1ToBEDV4E3_7-49" value="3" style="rounded=0;whiteSpace=wrap;html=1;fillColor=#d5e8d4;strokeColor=#82b366;fontColor=#666666;" vertex="1" parent="1">
          <mxGeometry x="400" y="520" width="20" height="20" as="geometry" />
        </mxCell>
        <mxCell id="SKo8-4BT1ToBEDV4E3_7-50" value="We" style="text;html=1;strokeColor=none;fillColor=none;align=center;verticalAlign=middle;whiteSpace=wrap;rounded=0;fontColor=#666666;" vertex="1" parent="1">
          <mxGeometry x="400" y="500" width="20" height="20" as="geometry" />
        </mxCell>
        <mxCell id="SKo8-4BT1ToBEDV4E3_7-51" value="4" style="rounded=0;whiteSpace=wrap;html=1;fillColor=#d5e8d4;strokeColor=#82b366;fontColor=#666666;" vertex="1" parent="1">
          <mxGeometry x="420" y="520" width="20" height="20" as="geometry" />
        </mxCell>
        <mxCell id="SKo8-4BT1ToBEDV4E3_7-52" value="Th" style="text;html=1;strokeColor=none;fillColor=none;align=center;verticalAlign=middle;whiteSpace=wrap;rounded=0;fontColor=#666666;" vertex="1" parent="1">
          <mxGeometry x="420" y="500" width="20" height="20" as="geometry" />
        </mxCell>
        <mxCell id="SKo8-4BT1ToBEDV4E3_7-53" value="5" style="rounded=0;whiteSpace=wrap;html=1;fillColor=#d5e8d4;strokeColor=#82b366;fontColor=#666666;" vertex="1" parent="1">
          <mxGeometry x="440" y="520" width="20" height="20" as="geometry" />
        </mxCell>
        <mxCell id="SKo8-4BT1ToBEDV4E3_7-54" value="Fr" style="text;html=1;strokeColor=none;fillColor=none;align=center;verticalAlign=middle;whiteSpace=wrap;rounded=0;fontColor=#666666;" vertex="1" parent="1">
          <mxGeometry x="440" y="500" width="20" height="20" as="geometry" />
        </mxCell>
        <mxCell id="SKo8-4BT1ToBEDV4E3_7-55" value="6" style="rounded=0;whiteSpace=wrap;html=1;fillColor=#d5e8d4;strokeColor=#82b366;fontColor=#666666;" vertex="1" parent="1">
          <mxGeometry x="460" y="520" width="20" height="20" as="geometry" />
        </mxCell>
        <mxCell id="SKo8-4BT1ToBEDV4E3_7-56" value="Sa" style="text;html=1;strokeColor=none;fillColor=none;align=center;verticalAlign=middle;whiteSpace=wrap;rounded=0;fontColor=#666666;" vertex="1" parent="1">
          <mxGeometry x="460" y="500" width="20" height="20" as="geometry" />
        </mxCell>
        <mxCell id="SKo8-4BT1ToBEDV4E3_7-57" value="7" style="rounded=0;whiteSpace=wrap;html=1;fillColor=#d5e8d4;strokeColor=#82b366;fontColor=#666666;" vertex="1" parent="1">
          <mxGeometry x="480" y="520" width="20" height="20" as="geometry" />
        </mxCell>
        <mxCell id="SKo8-4BT1ToBEDV4E3_7-58" value="Su" style="text;html=1;strokeColor=none;fillColor=none;align=center;verticalAlign=middle;whiteSpace=wrap;rounded=0;fontColor=#666666;" vertex="1" parent="1">
          <mxGeometry x="480" y="500" width="20" height="20" as="geometry" />
        </mxCell>
        <mxCell id="SKo8-4BT1ToBEDV4E3_7-60" value="2" style="rounded=0;whiteSpace=wrap;html=1;fillColor=#d5e8d4;strokeColor=#82b366;fontColor=#666666;" vertex="1" parent="1">
          <mxGeometry x="360" y="540" width="20" height="20" as="geometry" />
        </mxCell>
        <mxCell id="SKo8-4BT1ToBEDV4E3_7-61" value="3" style="rounded=0;whiteSpace=wrap;html=1;fillColor=#d5e8d4;strokeColor=#82b366;fontColor=#666666;" vertex="1" parent="1">
          <mxGeometry x="380" y="540" width="20" height="20" as="geometry" />
        </mxCell>
        <mxCell id="SKo8-4BT1ToBEDV4E3_7-62" value="4" style="rounded=0;whiteSpace=wrap;html=1;fillColor=#d5e8d4;strokeColor=#82b366;fontColor=#666666;" vertex="1" parent="1">
          <mxGeometry x="400" y="540" width="20" height="20" as="geometry" />
        </mxCell>
        <mxCell id="SKo8-4BT1ToBEDV4E3_7-63" value="..." style="rounded=0;whiteSpace=wrap;html=1;fillColor=#d5e8d4;strokeColor=#82b366;fontColor=#666666;" vertex="1" parent="1">
          <mxGeometry x="420" y="540" width="20" height="20" as="geometry" />
        </mxCell>
        <mxCell id="SKo8-4BT1ToBEDV4E3_7-64" value="..." style="rounded=0;whiteSpace=wrap;html=1;fillColor=#d5e8d4;strokeColor=#82b366;fontColor=#666666;" vertex="1" parent="1">
          <mxGeometry x="440" y="540" width="20" height="20" as="geometry" />
        </mxCell>
        <mxCell id="SKo8-4BT1ToBEDV4E3_7-65" value="..." style="rounded=0;whiteSpace=wrap;html=1;fillColor=#d5e8d4;strokeColor=#82b366;fontColor=#666666;" vertex="1" parent="1">
          <mxGeometry x="460" y="540" width="20" height="20" as="geometry" />
        </mxCell>
        <mxCell id="SKo8-4BT1ToBEDV4E3_7-66" value="..." style="rounded=0;whiteSpace=wrap;html=1;fillColor=#d5e8d4;strokeColor=#82b366;fontColor=#666666;" vertex="1" parent="1">
          <mxGeometry x="480" y="540" width="20" height="20" as="geometry" />
        </mxCell>
        <mxCell id="SKo8-4BT1ToBEDV4E3_7-67" value="3" style="rounded=0;whiteSpace=wrap;html=1;fillColor=#d5e8d4;strokeColor=#82b366;fontColor=#666666;" vertex="1" parent="1">
          <mxGeometry x="360" y="560" width="20" height="20" as="geometry" />
        </mxCell>
        <mxCell id="SKo8-4BT1ToBEDV4E3_7-68" value="..." style="rounded=0;whiteSpace=wrap;html=1;fillColor=#d5e8d4;strokeColor=#82b366;fontColor=#666666;" vertex="1" parent="1">
          <mxGeometry x="380" y="560" width="20" height="20" as="geometry" />
        </mxCell>
        <mxCell id="SKo8-4BT1ToBEDV4E3_7-69" value="" style="rounded=0;whiteSpace=wrap;html=1;fillColor=#d5e8d4;strokeColor=#82b366;fontColor=#666666;" vertex="1" parent="1">
          <mxGeometry x="400" y="560" width="20" height="20" as="geometry" />
        </mxCell>
        <mxCell id="SKo8-4BT1ToBEDV4E3_7-70" value="" style="rounded=0;whiteSpace=wrap;html=1;fillColor=#d5e8d4;strokeColor=#82b366;fontColor=#666666;" vertex="1" parent="1">
          <mxGeometry x="420" y="560" width="20" height="20" as="geometry" />
        </mxCell>
        <mxCell id="SKo8-4BT1ToBEDV4E3_7-71" value="" style="rounded=0;whiteSpace=wrap;html=1;fillColor=#d5e8d4;strokeColor=#82b366;fontColor=#666666;" vertex="1" parent="1">
          <mxGeometry x="440" y="560" width="20" height="20" as="geometry" />
        </mxCell>
        <mxCell id="SKo8-4BT1ToBEDV4E3_7-72" value="" style="rounded=0;whiteSpace=wrap;html=1;fillColor=#d5e8d4;strokeColor=#82b366;fontColor=#666666;" vertex="1" parent="1">
          <mxGeometry x="460" y="560" width="20" height="20" as="geometry" />
        </mxCell>
        <mxCell id="SKo8-4BT1ToBEDV4E3_7-73" value="" style="rounded=0;whiteSpace=wrap;html=1;fillColor=#d5e8d4;strokeColor=#82b366;fontColor=#000000;" vertex="1" parent="1">
          <mxGeometry x="480" y="560" width="20" height="20" as="geometry" />
        </mxCell>
        <mxCell id="SKo8-4BT1ToBEDV4E3_7-78" value="4" style="rounded=0;whiteSpace=wrap;html=1;fillColor=#d5e8d4;strokeColor=#82b366;fontColor=#666666;" vertex="1" parent="1">
          <mxGeometry x="360" y="580" width="20" height="20" as="geometry" />
        </mxCell>
        <mxCell id="SKo8-4BT1ToBEDV4E3_7-79" value="..." style="rounded=0;whiteSpace=wrap;html=1;fillColor=#d5e8d4;strokeColor=#82b366;fontColor=#666666;" vertex="1" parent="1">
          <mxGeometry x="380" y="580" width="20" height="20" as="geometry" />
        </mxCell>
        <mxCell id="SKo8-4BT1ToBEDV4E3_7-80" value="..." style="rounded=0;whiteSpace=wrap;html=1;fillColor=#d5e8d4;strokeColor=#82b366;fontColor=#666666;" vertex="1" parent="1">
          <mxGeometry x="400" y="580" width="20" height="20" as="geometry" />
        </mxCell>
        <mxCell id="SKo8-4BT1ToBEDV4E3_7-81" value="..." style="rounded=0;whiteSpace=wrap;html=1;fillColor=#d5e8d4;strokeColor=#82b366;fontColor=#666666;" vertex="1" parent="1">
          <mxGeometry x="420" y="580" width="20" height="20" as="geometry" />
        </mxCell>
        <mxCell id="SKo8-4BT1ToBEDV4E3_7-82" value="8" style="rounded=0;whiteSpace=wrap;html=1;fillColor=#d5e8d4;strokeColor=#82b366;fontColor=#666666;" vertex="1" parent="1">
          <mxGeometry x="440" y="580" width="20" height="20" as="geometry" />
        </mxCell>
        <mxCell id="SKo8-4BT1ToBEDV4E3_7-84" value="1st week: $28 x 1" style="text;html=1;strokeColor=none;fillColor=none;align=left;verticalAlign=middle;whiteSpace=wrap;rounded=0;fontColor=#000000;" vertex="1" parent="1">
          <mxGeometry x="506.5" y="520" width="145" height="20" as="geometry" />
        </mxCell>
        <mxCell id="SKo8-4BT1ToBEDV4E3_7-85" value="2nd week:&amp;nbsp;$28 x 2 + 7 x 1&amp;nbsp;" style="text;html=1;strokeColor=none;fillColor=none;align=left;verticalAlign=middle;whiteSpace=wrap;rounded=0;fontColor=#000000;" vertex="1" parent="1">
          <mxGeometry x="506.5" y="540" width="145" height="20" as="geometry" />
        </mxCell>
        <mxCell id="SKo8-4BT1ToBEDV4E3_7-86" value="3rd week:&amp;nbsp;$28 x 3 + 7 x 3" style="text;html=1;strokeColor=none;fillColor=none;align=left;verticalAlign=middle;whiteSpace=wrap;rounded=0;fontColor=#000000;" vertex="1" parent="1">
          <mxGeometry x="506.5" y="560" width="145" height="20" as="geometry" />
        </mxCell>
        <mxCell id="SKo8-4BT1ToBEDV4E3_7-87" value="4th week: 4 + 5 + 6 + 7 + 8&amp;nbsp;" style="text;html=1;strokeColor=none;fillColor=none;align=left;verticalAlign=middle;whiteSpace=wrap;rounded=0;fontColor=#000000;" vertex="1" parent="1">
          <mxGeometry x="490" y="580" width="160" height="20" as="geometry" />
        </mxCell>
        <mxCell id="SKo8-4BT1ToBEDV4E3_7-100" value="1st week: $28 x 1&amp;nbsp;&amp;nbsp;" style="text;html=1;strokeColor=none;fillColor=none;align=left;verticalAlign=middle;whiteSpace=wrap;rounded=0;fontColor=#000000;" vertex="1" parent="1">
          <mxGeometry x="365.5" y="650" width="145" height="20" as="geometry" />
        </mxCell>
        <mxCell id="SKo8-4BT1ToBEDV4E3_7-101" value="2nd week:&amp;nbsp;$28 x 2 + 7 x 1" style="text;html=1;strokeColor=none;fillColor=none;align=left;verticalAlign=middle;whiteSpace=wrap;rounded=0;fontColor=#000000;" vertex="1" parent="1">
          <mxGeometry x="361.5" y="670" width="145" height="20" as="geometry" />
        </mxCell>
        <mxCell id="SKo8-4BT1ToBEDV4E3_7-102" value="3rd week:&amp;nbsp;$28 x 3 + 7 x 3&amp;nbsp;" style="text;html=1;strokeColor=none;fillColor=none;align=left;verticalAlign=middle;whiteSpace=wrap;rounded=0;fontColor=#000000;" vertex="1" parent="1">
          <mxGeometry x="363.5" y="690" width="161.5" height="20" as="geometry" />
        </mxCell>
        <mxCell id="SKo8-4BT1ToBEDV4E3_7-104" value="" style="rounded=0;whiteSpace=wrap;html=1;fillColor=none;align=left;fontColor=#000000;strokeColor=#00CC00;" vertex="1" parent="1">
          <mxGeometry x="453" y="650" width="10" height="100" as="geometry" />
        </mxCell>
        <mxCell id="SKo8-4BT1ToBEDV4E3_7-105" value="" style="rounded=0;whiteSpace=wrap;html=1;fillColor=none;align=left;fontColor=#000000;strokeColor=#00CC00;" vertex="1" parent="1">
          <mxGeometry x="361" y="650" width="25" height="100" as="geometry" />
        </mxCell>
        <mxCell id="SKo8-4BT1ToBEDV4E3_7-106" value="" style="rounded=0;whiteSpace=wrap;html=1;fillColor=none;align=left;fontColor=#000000;strokeColor=#FF8000;" vertex="1" parent="1">
          <mxGeometry x="422" y="650" width="20" height="100" as="geometry" />
        </mxCell>
        <mxCell id="SKo8-4BT1ToBEDV4E3_7-107" value="nth week:&amp;nbsp;$28 x n + &lt;u&gt;7 x&amp;nbsp;&lt;i&gt;arithmetic sum*&lt;/i&gt;&lt;/u&gt;" style="text;html=1;strokeColor=none;fillColor=none;align=left;verticalAlign=middle;whiteSpace=wrap;rounded=0;fontColor=#000000;" vertex="1" parent="1">
          <mxGeometry x="364" y="730" width="223" height="20" as="geometry" />
        </mxCell>
        <mxCell id="SKo8-4BT1ToBEDV4E3_7-109" value="4th week:&amp;nbsp;$28 x 4 + 7 x 6&amp;nbsp;" style="text;html=1;strokeColor=none;fillColor=none;align=left;verticalAlign=middle;whiteSpace=wrap;rounded=0;fontColor=#000000;" vertex="1" parent="1">
          <mxGeometry x="364.5" y="710" width="174" height="20" as="geometry" />
        </mxCell>
        <mxCell id="SKo8-4BT1ToBEDV4E3_7-111" value="7 x (0)" style="text;html=1;strokeColor=none;fillColor=none;align=left;verticalAlign=middle;whiteSpace=wrap;rounded=0;fontColor=#000000;" vertex="1" parent="1">
          <mxGeometry x="525" y="650" width="40" height="20" as="geometry" />
        </mxCell>
        <mxCell id="SKo8-4BT1ToBEDV4E3_7-112" value="7 x (0 + 1)" style="text;html=1;strokeColor=none;fillColor=none;align=left;verticalAlign=middle;whiteSpace=wrap;rounded=0;fontColor=#000000;" vertex="1" parent="1">
          <mxGeometry x="525" y="670" width="60" height="20" as="geometry" />
        </mxCell>
        <mxCell id="SKo8-4BT1ToBEDV4E3_7-113" value="7 x (0 + 1 + 2)" style="text;html=1;strokeColor=none;fillColor=none;align=left;verticalAlign=middle;whiteSpace=wrap;rounded=0;fontColor=#000000;" vertex="1" parent="1">
          <mxGeometry x="525" y="690" width="90" height="20" as="geometry" />
        </mxCell>
        <mxCell id="SKo8-4BT1ToBEDV4E3_7-114" value="7 x (0 + 1 + 2 + 3)" style="text;html=1;strokeColor=none;fillColor=none;align=left;verticalAlign=middle;whiteSpace=wrap;rounded=0;fontColor=#000000;" vertex="1" parent="1">
          <mxGeometry x="525" y="710" width="120" height="20" as="geometry" />
        </mxCell>
        <mxCell id="SKo8-4BT1ToBEDV4E3_7-116" value="" style="labelPosition=right;align=left;strokeWidth=1;shape=mxgraph.mockup.markup.curlyBrace;html=1;shadow=0;dashed=0;strokeColor=#000000;direction=south;fontColor=#000000;fillColor=#f5f5f5;" vertex="1" parent="1">
          <mxGeometry x="645" y="520" width="20" height="60" as="geometry" />
        </mxCell>
        <mxCell id="SKo8-4BT1ToBEDV4E3_7-118" value="" style="endArrow=none;html=1;rounded=0;fillColor=#f5f5f5;strokeColor=#000000;fontColor=#000000;" edge="1" parent="1">
          <mxGeometry width="50" height="50" relative="1" as="geometry">
            <mxPoint x="660" y="590" as="sourcePoint" />
            <mxPoint x="640" y="589.8" as="targetPoint" />
          </mxGeometry>
        </mxCell>
        <mxCell id="SKo8-4BT1ToBEDV4E3_7-119" value="weeks" style="text;html=1;strokeColor=none;fillColor=none;align=left;verticalAlign=middle;whiteSpace=wrap;rounded=0;fontColor=#000000;" vertex="1" parent="1">
          <mxGeometry x="670.5" y="540" width="40" height="20" as="geometry" />
        </mxCell>
        <mxCell id="SKo8-4BT1ToBEDV4E3_7-120" value="&lt;font style=&quot;font-size: 10px;&quot;&gt;remain days&lt;/font&gt;" style="text;html=1;strokeColor=none;fillColor=none;align=left;verticalAlign=middle;whiteSpace=wrap;rounded=0;fontColor=#000000;" vertex="1" parent="1">
          <mxGeometry x="661" y="579" width="65" height="20" as="geometry" />
        </mxCell>
        <mxCell id="SKo8-4BT1ToBEDV4E3_7-121" value="=" style="text;html=1;strokeColor=none;fillColor=none;align=center;verticalAlign=middle;whiteSpace=wrap;rounded=0;fontColor=#000000;rotation=270;" vertex="1" parent="1">
          <mxGeometry x="680.5" y="521" width="15" height="20" as="geometry" />
        </mxCell>
        <mxCell id="SKo8-4BT1ToBEDV4E3_7-122" value="+" style="text;html=1;strokeColor=none;fillColor=none;align=center;verticalAlign=middle;whiteSpace=wrap;rounded=0;fontColor=#000000;" vertex="1" parent="1">
          <mxGeometry x="680.5" y="560" width="15" height="20" as="geometry" />
        </mxCell>
        <mxCell id="SKo8-4BT1ToBEDV4E3_7-123" value="Total" style="text;html=1;strokeColor=none;fillColor=none;align=center;verticalAlign=middle;whiteSpace=wrap;rounded=0;fontColor=#000000;" vertex="1" parent="1">
          <mxGeometry x="668" y="500" width="40" height="20" as="geometry" />
        </mxCell>
        <mxCell id="SKo8-4BT1ToBEDV4E3_7-128" value="&lt;font color=&quot;#cc0000&quot; style=&quot;font-size: 10px;&quot;&gt;7 x *Sum Of Arithmetic Sequence&lt;/font&gt;" style="text;html=1;strokeColor=none;fillColor=none;align=center;verticalAlign=middle;whiteSpace=wrap;rounded=0;" vertex="1" parent="1">
          <mxGeometry x="472" y="750" width="168" height="20" as="geometry" />
        </mxCell>
        <mxCell id="SKo8-4BT1ToBEDV4E3_7-130" value="" style="endArrow=none;dashed=1;html=1;dashPattern=1 3;strokeWidth=2;rounded=0;fontColor=#666666;strokeColor=#666666;" edge="1" parent="1">
          <mxGeometry width="50" height="50" relative="1" as="geometry">
            <mxPoint x="505" y="659.8" as="sourcePoint" />
            <mxPoint x="525" y="659.8" as="targetPoint" />
          </mxGeometry>
        </mxCell>
        <mxCell id="SKo8-4BT1ToBEDV4E3_7-131" value="" style="endArrow=none;dashed=1;html=1;dashPattern=1 3;strokeWidth=2;rounded=0;fontColor=#666666;strokeColor=#666666;" edge="1" parent="1">
          <mxGeometry width="50" height="50" relative="1" as="geometry">
            <mxPoint x="505" y="679.8" as="sourcePoint" />
            <mxPoint x="525" y="679.8" as="targetPoint" />
          </mxGeometry>
        </mxCell>
        <mxCell id="SKo8-4BT1ToBEDV4E3_7-132" value="" style="endArrow=none;dashed=1;html=1;dashPattern=1 3;strokeWidth=2;rounded=0;fontColor=#666666;strokeColor=#666666;" edge="1" parent="1">
          <mxGeometry width="50" height="50" relative="1" as="geometry">
            <mxPoint x="505" y="699.8" as="sourcePoint" />
            <mxPoint x="525" y="699.8" as="targetPoint" />
          </mxGeometry>
        </mxCell>
        <mxCell id="SKo8-4BT1ToBEDV4E3_7-133" value="" style="endArrow=none;dashed=1;html=1;dashPattern=1 3;strokeWidth=2;rounded=0;fontColor=#666666;strokeColor=#666666;" edge="1" parent="1">
          <mxGeometry width="50" height="50" relative="1" as="geometry">
            <mxPoint x="505" y="719.8" as="sourcePoint" />
            <mxPoint x="525" y="719.8" as="targetPoint" />
          </mxGeometry>
        </mxCell>
        <mxCell id="SKo8-4BT1ToBEDV4E3_7-134" value="&lt;font color=&quot;#ff8000&quot; style=&quot;font-size: 10px;&quot;&gt;CONSTANT&lt;/font&gt;" style="text;html=1;strokeColor=none;fillColor=none;align=center;verticalAlign=middle;whiteSpace=wrap;rounded=0;" vertex="1" parent="1">
          <mxGeometry x="404" y="750" width="60" height="20" as="geometry" />
        </mxCell>
        <mxCell id="SKo8-4BT1ToBEDV4E3_7-135" value="" style="endArrow=classic;startArrow=classic;html=1;rounded=0;exitX=0.5;exitY=0;exitDx=0;exitDy=0;entryX=0.5;entryY=0;entryDx=0;entryDy=0;edgeStyle=orthogonalEdgeStyle;curved=1;strokeColor=#00CC00;" edge="1" parent="1" source="SKo8-4BT1ToBEDV4E3_7-105" target="SKo8-4BT1ToBEDV4E3_7-104">
          <mxGeometry width="50" height="50" relative="1" as="geometry">
            <mxPoint x="460" y="720" as="sourcePoint" />
            <mxPoint x="460" y="630" as="targetPoint" />
            <Array as="points">
              <mxPoint x="374" y="630" />
              <mxPoint x="458" y="630" />
            </Array>
          </mxGeometry>
        </mxCell>
        <mxCell id="SKo8-4BT1ToBEDV4E3_7-136" value="&lt;font color=&quot;#00cc00&quot;&gt;Syn&lt;/font&gt;" style="edgeLabel;html=1;align=center;verticalAlign=middle;resizable=0;points=[];" vertex="1" connectable="0" parent="SKo8-4BT1ToBEDV4E3_7-135">
          <mxGeometry x="-0.009" y="-1" relative="1" as="geometry">
            <mxPoint as="offset" />
          </mxGeometry>
        </mxCell>
        <mxCell id="SKo8-4BT1ToBEDV4E3_7-142" value="4 + 5 + ...&amp;nbsp; 8&amp;nbsp;" style="text;html=1;strokeColor=none;fillColor=none;align=left;verticalAlign=middle;whiteSpace=wrap;rounded=0;fontColor=#000000;" vertex="1" parent="1">
          <mxGeometry x="361" y="780" width="98.5" height="20" as="geometry" />
        </mxCell>
        <mxCell id="SKo8-4BT1ToBEDV4E3_7-144" value="&lt;font color=&quot;#cc0000&quot; style=&quot;font-size: 10px;&quot;&gt;Sum Of Arithmetic Sequence&lt;/font&gt;" style="text;html=1;strokeColor=none;fillColor=none;align=center;verticalAlign=middle;whiteSpace=wrap;rounded=0;" vertex="1" parent="1">
          <mxGeometry x="429.5" y="820" width="138" height="20" as="geometry" />
        </mxCell>
        <mxCell id="SKo8-4BT1ToBEDV4E3_7-145" value="n + (n+1) + (n+2) + ... (n+5)&amp;nbsp;" style="text;html=1;strokeColor=none;fillColor=none;align=left;verticalAlign=middle;whiteSpace=wrap;rounded=0;fontColor=#000000;" vertex="1" parent="1">
          <mxGeometry x="361" y="800" width="158.5" height="20" as="geometry" />
        </mxCell>
        <mxCell id="SKo8-4BT1ToBEDV4E3_7-146" value="Text" style="text;html=1;strokeColor=none;fillColor=none;align=center;verticalAlign=middle;whiteSpace=wrap;rounded=0;" vertex="1" parent="1">
          <mxGeometry x="696.5" y="830" width="29.5" height="20" as="geometry" />
        </mxCell>
        <mxCell id="SKo8-4BT1ToBEDV4E3_7-147" value="Text" style="text;html=1;strokeColor=none;fillColor=none;align=center;verticalAlign=middle;whiteSpace=wrap;rounded=0;" vertex="1" parent="1">
          <mxGeometry x="355.25" y="360" width="29.5" height="20" as="geometry" />
        </mxCell>
      </root>
    </mxGraphModel>
  </diagram>
</mxfile>
